<?xml version="1.0" encoding="utf-8"?>
<!-- Generator: Adobe Illustrator 26.3.1, SVG Export Plug-In . SVG Version: 6.00 Build 0)  -->
<svg version="1.1" id="Capa_1" xmlns="http://www.w3.org/2000/svg" xmlns:xlink="http://www.w3.org/1999/xlink" x="0px" y="0px"
	 viewBox="0 0 1678.66 660.38" style="enable-background:new 0 0 1678.66 660.38;" xml:space="preserve">
<style type="text/css">
	.st0{fill:#22619D;}
	.st1{fill:#FFFFFF;}
	.st2{fill:#404041;}
</style>
<path id="XMLID_00000160876174495654031910000015353556492957280686_" class="st0" d="M677.32,600.78l-538.73,32.02
	c-49.02,0-89.13-45.86-89.13-101.91V133.12c0-56.05,40.11-101.91,89.13-101.91l542.69,56.4c49.02,0,85.17,64.99,85.17,121.04v292.16
	C766.45,556.86,726.34,600.78,677.32,600.78z"/>
<g id="XMLID_00000127032479045017380990000005840095792720769167_">
	<path id="XMLID_00000080909315811220492190000014622667493500979597_" class="st1" d="M339.01,438.3
		c-7.65,2.34-17.28,4.46-28.87,6.38c-11.61,1.91-23.78,2.87-36.55,2.87c-13.19,0-25-2.02-35.43-6.06
		c-10.43-4.03-19.3-9.83-26.64-17.39c-7.34-7.55-12.97-16.7-16.91-27.44c-3.94-10.73-5.9-22.82-5.9-36.21
		c0-13.19,1.64-25.16,4.94-35.91c3.3-10.73,8.14-19.94,14.53-27.6c6.38-7.65,14.14-13.55,23.3-17.71
		c9.13-4.14,19.68-6.21,31.59-6.21c8.09,0,15.21,0.95,21.38,2.87c6.17,1.92,11.49,4.04,15.95,6.38v-80.11l38.61-6.38V438.3z
		 M228.28,359.47c0,17.03,4.04,30.37,12.13,40.05c8.09,9.69,19.26,14.51,33.51,14.51c6.17,0,11.43-0.26,15.79-0.8
		c4.36-0.52,7.93-1.11,10.69-1.75v-95.74c-3.4-2.34-7.93-4.52-13.55-6.54c-5.64-2.02-11.65-3.03-18.03-3.03
		c-14.05,0-24.32,4.78-30.8,14.35C231.52,330.11,228.28,343.1,228.28,359.47z"/>
	<path id="XMLID_00000033339438420113019380000014923599451821760186_" class="st1" d="M370.92,360.75
		c0-14.69,2.18-27.55,6.54-38.61c4.36-11.07,10.15-20.27,17.39-27.6c7.23-7.34,15.53-12.87,24.9-16.59
		c9.35-3.72,18.92-5.58,28.71-5.58c22.98,0,40.9,7.13,53.78,21.38c12.87,14.25,19.3,35.53,19.3,63.82c0,2.14-0.04,4.52-0.16,7.18
		c-0.1,2.66-0.26,5.06-0.48,7.18h-110.1c1.06,13.39,5.8,23.78,14.21,31.11c8.39,7.34,20.58,11.01,36.53,11.01
		c9.37,0,17.92-0.84,25.68-2.55c7.77-1.7,13.89-3.52,18.35-5.42l5.1,31.59c-2.12,1.06-5.05,2.18-8.77,3.35
		c-3.72,1.18-7.98,2.24-12.77,3.2c-4.78,0.96-9.95,1.76-15.47,2.39c-5.54,0.64-11.17,0.96-16.91,0.96
		c-14.67,0-27.44-2.18-38.29-6.54c-10.85-4.35-19.79-10.41-26.8-18.18c-7.02-7.77-12.25-16.91-15.65-27.44
		C372.62,384.84,370.92,373.31,370.92,360.75z M482.94,343.52c0-5.32-0.74-10.37-2.23-15.15c-1.5-4.8-3.68-8.94-6.54-12.45
		c-2.88-3.52-6.38-6.27-10.53-8.3c-4.16-2.02-9.1-3.03-14.85-3.03c-5.95,0-11.17,1.12-15.63,3.35c-4.46,2.24-8.25,5.16-11.33,8.78
		c-3.08,3.62-5.48,7.77-7.18,12.43c-1.7,4.68-2.87,9.48-3.51,14.37H482.94z"/>
	<path id="XMLID_00000171698114681018670670000015392034112021958585_" class="st1" d="M704.75,360.11c0,13.41-1.98,25.48-5.9,36.21
		c-3.94,10.75-9.58,19.95-16.91,27.6c-7.34,7.66-16.23,13.53-26.64,17.55c-10.43,4.04-22.24,6.06-35.43,6.06
		c-12.77,0-24.94-0.96-36.55-2.87c-11.59-1.92-21.22-4.04-28.87-6.38V202.14l38.61-6.38v86.49c4.46-2.34,9.93-4.46,16.43-6.38
		c6.49-1.92,13.67-2.87,21.54-2.87c11.69,0,22.18,2.07,31.43,6.21c9.26,4.16,16.97,10.06,23.14,17.71
		c6.17,7.66,10.91,16.87,14.21,27.6C703.09,335.27,704.75,347.14,704.75,360.11z M665.17,359.47c0-16.38-3.24-29.36-9.73-38.93
		c-6.5-9.57-16.75-14.35-30.8-14.35c-6.38,0-12.39,0.95-18.03,2.87c-5.64,1.92-10.15,4.04-13.55,6.38v96.06
		c2.76,0.64,6.33,1.22,10.69,1.75c4.35,0.54,9.61,0.8,15.79,0.8c14.25,0,25.42-4.83,33.51-14.51
		C661.13,389.84,665.17,376.51,665.17,359.47z"/>
	<path id="XMLID_00000070110897758372347220000015935963019833926077_" class="st2" d="M892.85,355.65c0-17.45-2.2-30.05-6.54-37.83
		c-4.36-7.75-12.51-11.64-24.42-11.64c-4.26,0-8.93,0.32-14.03,0.95c-5.1,0.64-8.94,1.18-11.49,1.6v134.68h-38.61V281.93
		c7.43-2.12,17.18-4.14,29.19-6.06c12.03-1.92,24.74-2.87,38.15-2.87c11.48,0,20.9,1.48,28.23,4.46
		c7.34,2.98,13.47,6.91,18.35,11.81c2.34-1.7,5.32-3.52,8.94-5.42c3.61-1.92,7.65-3.68,12.11-5.26c4.48-1.6,9.21-2.92,14.21-4
		c4.99-1.06,10.05-1.59,15.15-1.59c12.97,0,23.66,1.86,32.07,5.58c8.41,3.72,15.01,8.93,19.79,15.63c4.78,6.7,8.09,14.79,9.89,24.24
		c1.8,9.47,2.72,19.85,2.72,31.12v93.82h-38.61v-87.76c0-17.45-2.14-30.05-6.38-37.83c-4.26-7.75-12.45-11.64-24.58-11.64
		c-6.17,0-12.03,1-17.55,3.03c-5.53,2.02-9.69,3.98-12.45,5.9c1.7,5.32,2.88,10.97,3.52,16.91c0.64,5.96,0.96,12.35,0.96,19.15
		v92.22h-38.61V355.65z"/>
	<path id="XMLID_00000168083703663543610160000016089974579681355169_" class="st2" d="M1056.55,359.21
		c0-14.69,2.18-27.55,6.54-38.61c4.36-11.07,10.15-20.27,17.39-27.6c7.23-7.34,15.53-12.87,24.9-16.59
		c9.35-3.72,18.92-5.58,28.71-5.58c22.98,0,40.9,7.13,53.78,21.38c12.87,14.25,19.3,35.53,19.3,63.82c0,2.14-0.04,4.52-0.16,7.18
		c-0.1,2.66-0.26,5.06-0.48,7.18h-110.1c1.06,13.39,5.8,23.78,14.21,31.11c8.39,7.34,20.58,11.01,36.53,11.01
		c9.37,0,17.92-0.84,25.68-2.55c7.77-1.7,13.89-3.52,18.35-5.42l5.1,31.59c-2.12,1.06-5.05,2.18-8.77,3.35
		c-3.72,1.18-7.98,2.24-12.77,3.2c-4.78,0.96-9.95,1.76-15.47,2.39c-5.54,0.64-11.17,0.96-16.91,0.96
		c-14.67,0-27.44-2.18-38.29-6.54c-10.85-4.35-19.79-10.41-26.8-18.18c-7.02-7.77-12.25-16.91-15.65-27.44
		C1058.25,383.29,1056.55,371.76,1056.55,359.21z M1168.57,341.97c0-5.32-0.74-10.37-2.23-15.15c-1.5-4.8-3.68-8.94-6.54-12.45
		c-2.88-3.52-6.38-6.27-10.53-8.3c-4.16-2.02-9.1-3.03-14.85-3.03c-5.95,0-11.17,1.12-15.63,3.35c-4.46,2.24-8.25,5.16-11.33,8.78
		s-5.48,7.77-7.18,12.43c-1.7,4.68-2.87,9.48-3.51,14.37H1168.57z"/>
	<path id="XMLID_00000129184920421875740640000010710026504035526829_" class="st2" d="M1381.11,436.75
		c-7.65,2.34-17.28,4.46-28.87,6.38c-11.61,1.91-23.78,2.87-36.55,2.87c-13.19,0-25-2.02-35.43-6.06
		c-10.43-4.03-19.3-9.83-26.64-17.39c-7.34-7.55-12.97-16.7-16.91-27.44c-3.94-10.73-5.9-22.82-5.9-36.21
		c0-13.19,1.64-25.16,4.94-35.91c3.3-10.73,8.14-19.94,14.53-27.6c6.38-7.65,14.14-13.55,23.3-17.71
		c9.13-4.14,19.68-6.21,31.59-6.21c8.09,0,15.21,0.95,21.38,2.87c6.17,1.92,11.49,4.04,15.95,6.38v-80.11l38.61-6.38V436.75z
		 M1270.37,357.93c0,17.03,4.04,30.37,12.13,40.05c8.09,9.69,19.26,14.51,33.51,14.51c6.17,0,11.43-0.26,15.79-0.8
		c4.36-0.52,7.93-1.11,10.69-1.75v-95.74c-3.4-2.34-7.93-4.52-13.55-6.54c-5.64-2.02-11.65-3.03-18.03-3.03
		c-14.05,0-24.32,4.78-30.8,14.35C1273.62,328.56,1270.37,341.55,1270.37,357.93z"/>
	<path id="XMLID_00000075872118680413087150000006644674559019336355_" class="st2" d="M1465.36,226.13
		c0,7.23-2.34,12.97-7.02,17.23c-4.68,4.25-10.21,6.37-16.59,6.37c-6.59,0-12.23-2.12-16.91-6.37c-4.68-4.26-7.02-10.01-7.02-17.23
		c0-7.45,2.34-13.29,7.02-17.55s10.33-6.38,16.91-6.38c6.38,0,11.91,2.12,16.59,6.38S1465.36,218.68,1465.36,226.13z
		 M1461.22,441.86h-38.61v-166.9h38.61V441.86z"/>
	<path id="XMLID_00000044884733117647553240000016889199131993293223_" class="st2" d="M1557.9,270.81c12.75,0,23.5,1.59,32.23,4.78
		c8.73,3.19,15.69,7.65,20.9,13.39s8.94,12.73,11.17,20.91c2.24,8.19,3.36,17.18,3.36,26.96v101.17
		c-5.96,1.27-14.95,2.82-26.98,4.62c-12.01,1.8-25.58,2.71-40.68,2.71c-10.01,0-19.15-0.95-27.44-2.87c-8.3-1.92-15.37-5-21.23-9.25
		c-5.85-4.26-10.43-9.79-13.71-16.59c-3.3-6.81-4.94-15.21-4.94-25.22c0-9.57,1.86-17.66,5.58-24.26
		c3.71-6.59,8.77-11.95,15.15-16.11c6.38-4.14,13.77-7.13,22.18-8.93c8.41-1.8,17.18-2.72,26.32-2.72c4.26,0,8.73,0.28,13.41,0.8
		c4.68,0.54,9.67,1.44,14.99,2.72v-6.38c0-4.46-0.52-8.73-1.59-12.77c-1.08-4.04-2.94-7.61-5.58-10.69
		c-2.68-3.08-6.18-5.47-10.54-7.18c-4.36-1.7-9.83-2.55-16.43-2.55c-8.93,0-17.12,0.64-24.56,1.91c-7.45,1.28-13.51,2.78-18.19,4.48
		l-4.78-31.28c4.89-1.7,12.01-3.4,21.38-5.1C1537.27,271.65,1547.26,270.81,1557.9,270.81z M1561.09,414.73
		c11.91,0,20.96-0.64,27.12-1.92v-42.76c-2.12-0.64-5.21-1.28-9.25-1.92c-4.04-0.64-8.51-0.96-13.41-0.96
		c-4.26,0-8.57,0.32-12.91,0.96c-4.36,0.64-8.3,1.82-11.81,3.52c-3.52,1.7-6.34,4.09-8.46,7.17c-2.12,3.1-3.19,6.98-3.19,11.65
		c0,9.15,2.87,15.47,8.61,18.99C1543.53,412.97,1551.3,414.73,1561.09,414.73z"/>
</g>
</svg>
